<?xml version="1.0" encoding="UTF-8"?>
<svg width="218px" height="31px" viewBox="0 0 218 31" version="1.1" xmlns="http://www.w3.org/2000/svg" xmlns:xlink="http://www.w3.org/1999/xlink">
    <title>Group 4 Copy 2@2x</title>
    <defs>
        <linearGradient x1="14.266392%" y1="21.9573355%" x2="85.733608%" y2="73.2091247%" id="linearGradient-1">
            <stop stop-color="#0066F5" offset="0%"></stop>
            <stop stop-color="#009104" offset="100%"></stop>
        </linearGradient>
    </defs>
    <g id="v1" stroke="none" stroke-width="1" fill="none" fill-rule="evenodd">
        <g id="HCP-Home" transform="translate(-47.000000, -12.000000)">
            <g id="Group-4-Copy-2" transform="translate(47.000000, 12.000000)">
                <path d="M38.9008811,22.25 L38.9008811,16.4975 L44.4973811,16.4975 L44.4973811,22.25 L47.6563811,22.25 L47.6563811,8.3075 L44.4973811,8.3075 L44.4973811,14.0015 L38.9008811,14.0015 L38.9008811,8.3075 L35.7418811,8.3075 L35.7418811,22.25 L38.9008811,22.25 Z M55.0858811,22.4645 C57.8743811,22.4645 59.6293811,21.236 59.9608811,19.0325 L57.2893811,19.0325 C57.1138811,19.8905 56.4703811,20.456 55.1638811,20.456 C53.6233811,20.456 52.7068811,19.481 52.6288811,17.7845 L59.9803811,17.7845 L59.9803811,17.0045 C59.9803811,13.358 57.6403811,11.8175 55.0078811,11.8175 C52.0438811,11.8175 49.7623811,13.904 49.7623811,17.1215 L49.7623811,17.2775 C49.7623811,20.534 52.0048811,22.4645 55.0858811,22.4645 Z M57.2308811,16.049 L52.6678811,16.049 C52.8823811,14.606 53.7403811,13.7675 55.0078811,13.7675 C56.3533811,13.7675 57.1333811,14.5085 57.2308811,16.049 Z M64.5823811,22.4645 C66.1813811,22.4645 67.0783811,21.8405 67.6633811,21.0215 L67.6633811,22.25 L70.4128811,22.25 L70.4128811,15.6005 C70.4128811,12.8315 68.6383811,11.8175 66.1423811,11.8175 C63.6463811,11.8175 61.7353811,12.89 61.5598811,15.308 L64.2313811,15.308 C64.3483811,14.4305 64.8553811,13.865 65.9668811,13.865 C67.2538811,13.865 67.6243811,14.528 67.6243811,15.737 L67.6243811,16.1465 L66.4738811,16.1465 C63.3538811,16.1465 61.1698811,17.0435 61.1698811,19.4225 C61.1698811,21.5675 62.7298811,22.4645 64.5823811,22.4645 Z M65.4208811,20.495 C64.3873811,20.495 63.9388811,20.0075 63.9388811,19.2665 C63.9388811,18.1745 64.8943811,17.8235 66.5323811,17.8235 L67.6243811,17.8235 L67.6243811,18.6815 C67.6243811,19.8125 66.6688811,20.495 65.4208811,20.495 Z M75.7168811,22.25 L75.7168811,7.43 L72.9088811,7.43 L72.9088811,22.25 L75.7168811,22.25 Z M82.0153811,22.445 C82.7758811,22.445 83.3413811,22.3085 83.7313811,22.172 L83.7313811,19.988 C83.3998811,20.1245 83.0878811,20.183 82.6588811,20.183 C81.9373811,20.183 81.5278811,19.793 81.5278811,18.974 L81.5278811,14.06 L83.6728811,14.06 L83.6728811,12.0515 L81.5278811,12.0515 L81.5278811,9.848 L78.7198811,9.848 L78.7198811,12.0515 L77.4133811,12.0515 L77.4133811,14.06 L78.7198811,14.06 L78.7198811,19.2275 C78.7198811,21.353 79.8703811,22.445 82.0153811,22.445 Z M88.4698811,22.25 L88.4698811,16.361 C88.4698811,14.8595 89.3863811,14.1185 90.5953811,14.1185 C91.8433811,14.1185 92.3893811,14.7815 92.3893811,16.166 L92.3893811,22.25 L95.2168811,22.25 L95.2168811,15.7565 C95.2168811,13.0265 93.7933811,11.8175 91.7848811,11.8175 C90.0883811,11.8175 88.9768811,12.656 88.4698811,13.67 L88.4698811,7.43 L85.6423811,7.43 L85.6423811,22.25 L88.4698811,22.25 Z M102.256381,22.4645 C105.220381,22.4645 106.975381,20.7875 107.131381,18.3695 L104.576881,18.3695 C104.440381,19.676 103.523881,20.339 102.392881,20.339 C100.813381,20.339 99.8968811,19.286 99.8968811,17.2385 L99.8968811,17.0825 C99.8968811,15.1325 100.871881,14.0405 102.334381,14.0405 C103.484881,14.0405 104.206381,14.5865 104.401381,15.776 L107.072881,15.776 C106.819381,12.851 104.635381,11.8175 102.275881,11.8175 C99.3703811,11.8175 97.0108811,13.826 97.0108811,17.1215 L97.0108811,17.2775 C97.0108811,20.612 99.2728811,22.4645 102.256381,22.4645 Z M111.655381,22.4645 C113.254381,22.4645 114.151381,21.8405 114.736381,21.0215 L114.736381,22.25 L117.485881,22.25 L117.485881,15.6005 C117.485881,12.8315 115.711381,11.8175 113.215381,11.8175 C110.719381,11.8175 108.808381,12.89 108.632881,15.308 L111.304381,15.308 C111.421381,14.4305 111.928381,13.865 113.039881,13.865 C114.326881,13.865 114.697381,14.528 114.697381,15.737 L114.697381,16.1465 L113.546881,16.1465 C110.426881,16.1465 108.242881,17.0435 108.242881,19.4225 C108.242881,21.5675 109.802881,22.4645 111.655381,22.4645 Z M112.493881,20.495 C111.460381,20.495 111.011881,20.0075 111.011881,19.2665 C111.011881,18.1745 111.967381,17.8235 113.605381,17.8235 L114.697381,17.8235 L114.697381,18.6815 C114.697381,19.8125 113.741881,20.495 112.493881,20.495 Z M122.731381,22.25 L122.731381,17.141 C122.731381,15.191 123.940381,14.5085 126.026881,14.528 L126.026881,11.8955 C124.369381,11.915 123.374881,12.6365 122.731381,14.0015 L122.731381,12.0515 L119.903881,12.0515 L119.903881,22.25 L122.731381,22.25 Z M132.578881,22.4645 C135.367381,22.4645 137.122381,21.236 137.453881,19.0325 L134.782381,19.0325 C134.606881,19.8905 133.963381,20.456 132.656881,20.456 C131.116381,20.456 130.199881,19.481 130.121881,17.7845 L137.473381,17.7845 L137.473381,17.0045 C137.473381,13.358 135.133381,11.8175 132.500881,11.8175 C129.536881,11.8175 127.255381,13.904 127.255381,17.1215 L127.255381,17.2775 C127.255381,20.534 129.497881,22.4645 132.578881,22.4645 Z M134.723881,16.049 L130.160881,16.049 C130.375381,14.606 131.233381,13.7675 132.500881,13.7675 C133.846381,13.7675 134.626381,14.5085 134.723881,16.049 Z M145.370881,22.25 L145.370881,16.5755 L147.632881,16.5755 C150.284881,16.5755 152.507881,15.425 152.507881,12.461 L152.507881,12.383 C152.507881,9.4775 150.304381,8.3075 147.632881,8.3075 L143.674381,8.3075 L143.674381,22.25 L145.370881,22.25 Z M147.749881,15.23 L145.370881,15.23 L145.370881,9.6725 L147.749881,9.6725 C149.641381,9.6725 150.811381,10.4135 150.811381,12.383 L150.811381,12.461 C150.811381,14.255 149.738881,15.23 147.749881,15.23 Z M156.563881,22.25 L156.563881,7.1765 L154.925881,7.1765 L154.925881,22.25 L156.563881,22.25 Z M162.433381,22.4255 C163.934881,22.4255 164.851381,21.9185 165.611881,20.963 L165.611881,22.25 L167.230381,22.25 L167.230381,15.5225 C167.230381,12.6755 165.455881,11.876 163.505881,11.876 C161.536381,11.876 159.683881,12.734 159.469381,15.0545 L161.087881,15.0545 C161.243881,13.8065 162.023881,13.2215 163.427881,13.2215 C164.987881,13.2215 165.611881,13.904 165.611881,15.5225 L165.611881,16.2635 L164.149381,16.2635 C161.536381,16.2635 159.040381,17.063 159.040381,19.4225 C159.040381,21.509 160.541881,22.4255 162.433381,22.4255 Z M162.589381,21.1385 C161.165881,21.1385 160.658881,20.4755 160.658881,19.4225 C160.658881,17.921 162.160381,17.414 164.207881,17.414 L165.611881,17.414 L165.611881,18.6815 C165.611881,20.261 164.305381,21.1385 162.589381,21.1385 Z M173.509381,22.3865 C174.172381,22.3865 174.562381,22.289 174.893881,22.172 L174.893881,20.807 C174.542881,20.9435 174.152881,21.0215 173.645881,21.0215 C172.826881,21.0215 172.378381,20.534 172.378381,19.5395 L172.378381,13.4165 L174.757381,13.4165 L174.757381,12.0515 L172.378381,12.0515 L172.378381,9.731 L170.759881,9.731 L170.759881,12.0515 L169.297381,12.0515 L169.297381,13.4165 L170.759881,13.4165 L170.759881,19.6955 C170.759881,21.2945 171.656881,22.3865 173.509381,22.3865 Z M179.300881,22.25 L179.300881,13.4165 L181.796881,13.4165 L181.796881,12.0515 L179.300881,12.0515 L179.300881,10.2185 C179.300881,9.185 179.729881,8.4635 180.782881,8.4635 C181.231381,8.4635 181.640881,8.561 181.933381,8.678 L181.933381,7.313 C181.523881,7.1765 181.250881,7.118 180.724381,7.118 C178.696381,7.118 177.682381,8.327 177.682381,10.394 L177.682381,12.0515 L176.219881,12.0515 L176.219881,13.4165 L177.682381,13.4165 L177.682381,22.25 L179.300881,22.25 Z M188.309881,22.4255 C191.215381,22.4255 193.340881,20.3 193.340881,17.219 L193.340881,17.063 C193.340881,14.0015 191.215381,11.876 188.329381,11.876 C185.443381,11.876 183.317881,14.021 183.317881,17.0825 L183.317881,17.2385 C183.317881,20.222 185.404381,22.4255 188.309881,22.4255 Z M188.329381,21.08 C186.262381,21.08 184.994881,19.559 184.994881,17.2385 L184.994881,17.0825 C184.994881,14.7425 186.281881,13.2215 188.329381,13.2215 C190.357381,13.2215 191.663881,14.7425 191.663881,17.102 L191.663881,17.2385 C191.663881,19.5395 190.376881,21.08 188.329381,21.08 Z M197.474881,22.25 L197.474881,16.6535 C197.474881,14.138 198.781381,13.4945 200.828881,13.397 L200.828881,11.876 C198.995881,11.9345 198.118381,12.734 197.474881,13.8845 L197.474881,12.0515 L195.856381,12.0515 L195.856381,22.25 L197.474881,22.25 Z M204.806881,22.25 L204.806881,16.01 C204.806881,14.177 206.171881,13.28 207.497881,13.28 C208.901881,13.28 209.662381,14.021 209.662381,15.815 L209.662381,22.25 L211.280881,22.25 L211.280881,16.01 C211.280881,14.177 212.645881,13.28 213.971881,13.28 C215.375881,13.28 216.136381,14.021 216.136381,15.815 L216.136381,22.25 L217.754881,22.25 L217.754881,15.932 C217.754881,12.968 216.155881,11.876 214.322881,11.876 C213.055381,11.876 211.534381,12.461 210.832381,13.787 C210.305881,12.422 209.155381,11.876 207.848881,11.876 C206.386381,11.876 205.274881,12.656 204.806881,13.6115 L204.806881,12.0515 L203.188381,12.0515 L203.188381,22.25 L204.806881,22.25 Z" id="HealthcarePlatform" fill="#FFFFFF" fill-rule="nonzero"></path>
                <g id="Group">
                    <polygon id="Polygon" fill="url(#linearGradient-1)" points="12.9903811 -3.55271368e-15 25.9807621 8 25.9807621 22 12.9903811 30.7325399 4.08562073e-14 22 2.25460625e-13 8"></polygon>
                    <polygon id="Polygon" fill="#FFFFFF" opacity="0.25" points="12.9903811 -1.77635684e-15 25.9807621 8 12.9903811 16.8216611 4.08562073e-14 8"></polygon>
                    <polygon id="Polygon-Copy" fill="#FFFFFF" opacity="0.5" points="12.9903811 7.75 25.9807621 15.75 12.9903811 24.5716611 4.08562073e-14 15.75"></polygon>
                    <polygon id="Polygon-Copy-2" fill="#FFFFFF" opacity="0.75" points="12.9903811 14 25.9807621 22 12.9903811 30.8216611 4.08562073e-14 22"></polygon>
                </g>
            </g>
        </g>
    </g>
</svg>